<?xml version="1.0" encoding="utf-8" standalone="no"?>
<!DOCTYPE svg PUBLIC "-//W3C//DTD SVG 1.1//EN"
  "http://www.w3.org/Graphics/SVG/1.1/DTD/svg11.dtd">
<svg xmlns:xlink="http://www.w3.org/1999/xlink" width="265.169045pt" height="229.376068pt" viewBox="0 0 265.169045 229.376068" xmlns="http://www.w3.org/2000/svg" version="1.1">
 <metadata>
  <rdf:RDF xmlns:dc="http://purl.org/dc/elements/1.1/" xmlns:cc="http://creativecommons.org/ns#" xmlns:rdf="http://www.w3.org/1999/02/22-rdf-syntax-ns#">
   <cc:Work>
    <dc:type rdf:resource="http://purl.org/dc/dcmitype/StillImage"/>
    <dc:date>2026-03-01T21:11:48.009814</dc:date>
    <dc:format>image/svg+xml</dc:format>
    <dc:creator>
     <cc:Agent>
      <dc:title>Matplotlib v3.10.7, https://matplotlib.org/</dc:title>
     </cc:Agent>
    </dc:creator>
   </cc:Work>
  </rdf:RDF>
 </metadata>
 <defs>
  <style type="text/css">*{stroke-linejoin: round; stroke-linecap: butt}</style>
 </defs>
 <g id="figure_1">
  <g id="patch_1">
   <path d="M 0 229.376068 
L 265.169045 229.376068 
L 265.169045 0 
L 0 0 
L 0 229.376068 
z
" style="fill: none"/>
  </g>
  <g id="axes_1">
   <g id="patch_2">
    <path d="M 38.619371 63.980126 
L 261.46252 63.980126 
L 261.46252 0.72 
L 38.619371 0.72 
L 38.619371 63.980126 
z
" style="fill: none"/>
   </g>
   <g id="matplotlib.axis_1">
    <g id="xtick_1">
     <g id="line2d_1">
      <path d="M 48.748606 63.980126 
L 48.748606 0.72 
" clip-path="url(#p7a42a01470)" style="fill: none; stroke: #b0b0b0; stroke-width: 0.8; stroke-linecap: square"/>
     </g>
     <g id="line2d_2">
      <defs>
       <path id="m615bc70acb" d="M 0 0 
L 0 3.5 
" style="stroke: #000000; stroke-width: 0.8"/>
      </defs>
      <g>
       <use xlink:href="#m615bc70acb" x="48.748606" y="63.980126" style="stroke: #000000; stroke-width: 0.8"/>
      </g>
     </g>
    </g>
    <g id="xtick_2">
     <g id="line2d_3">
      <path d="M 91.041857 63.980126 
L 91.041857 0.72 
" clip-path="url(#p7a42a01470)" style="fill: none; stroke: #b0b0b0; stroke-width: 0.8; stroke-linecap: square"/>
     </g>
     <g id="line2d_4">
      <g>
       <use xlink:href="#m615bc70acb" x="91.041857" y="63.980126" style="stroke: #000000; stroke-width: 0.8"/>
      </g>
     </g>
    </g>
    <g id="xtick_3">
     <g id="line2d_5">
      <path d="M 133.335108 63.980126 
L 133.335108 0.72 
" clip-path="url(#p7a42a01470)" style="fill: none; stroke: #b0b0b0; stroke-width: 0.8; stroke-linecap: square"/>
     </g>
     <g id="line2d_6">
      <g>
       <use xlink:href="#m615bc70acb" x="133.335108" y="63.980126" style="stroke: #000000; stroke-width: 0.8"/>
      </g>
     </g>
    </g>
    <g id="xtick_4">
     <g id="line2d_7">
      <path d="M 175.62836 63.980126 
L 175.62836 0.72 
" clip-path="url(#p7a42a01470)" style="fill: none; stroke: #b0b0b0; stroke-width: 0.8; stroke-linecap: square"/>
     </g>
     <g id="line2d_8">
      <g>
       <use xlink:href="#m615bc70acb" x="175.62836" y="63.980126" style="stroke: #000000; stroke-width: 0.8"/>
      </g>
     </g>
    </g>
    <g id="xtick_5">
     <g id="line2d_9">
      <path d="M 217.921611 63.980126 
L 217.921611 0.72 
" clip-path="url(#p7a42a01470)" style="fill: none; stroke: #b0b0b0; stroke-width: 0.8; stroke-linecap: square"/>
     </g>
     <g id="line2d_10">
      <g>
       <use xlink:href="#m615bc70acb" x="217.921611" y="63.980126" style="stroke: #000000; stroke-width: 0.8"/>
      </g>
     </g>
    </g>
    <g id="xtick_6">
     <g id="line2d_11">
      <path d="M 260.214862 63.980126 
L 260.214862 0.72 
" clip-path="url(#p7a42a01470)" style="fill: none; stroke: #b0b0b0; stroke-width: 0.8; stroke-linecap: square"/>
     </g>
     <g id="line2d_12">
      <g>
       <use xlink:href="#m615bc70acb" x="260.214862" y="63.980126" style="stroke: #000000; stroke-width: 0.8"/>
      </g>
     </g>
    </g>
   </g>
   <g id="matplotlib.axis_2">
    <g id="ytick_1">
     <g id="line2d_13">
      <path d="M 38.619371 61.104666 
L 261.46252 61.104666 
" clip-path="url(#p7a42a01470)" style="fill: none; stroke: #b0b0b0; stroke-width: 0.8; stroke-linecap: square"/>
     </g>
     <g id="line2d_14">
      <defs>
       <path id="m3bf31e405b" d="M 0 0 
L -3.5 0 
" style="stroke: #000000; stroke-width: 0.8"/>
      </defs>
      <g>
       <use xlink:href="#m3bf31e405b" x="38.619371" y="61.104666" style="stroke: #000000; stroke-width: 0.8"/>
      </g>
     </g>
     <g id="text_1">
      <!-- $\mathdefault{0}$ -->
      <g transform="translate(27.385189 63.872067) scale(0.08 -0.08)">
       <defs>
        <path id="CMR17-30" d="M 2688 2025 
C 2688 2416 2682 3080 2413 3591 
C 2176 4039 1798 4198 1466 4198 
C 1158 4198 768 4058 525 3597 
C 269 3118 243 2524 243 2025 
C 243 1661 250 1106 448 619 
C 723 -39 1216 -128 1466 -128 
C 1760 -128 2208 -7 2470 600 
C 2662 1042 2688 1559 2688 2025 
z
M 1466 -26 
C 1056 -26 813 325 723 812 
C 653 1188 653 1738 653 2096 
C 653 2588 653 2997 736 3387 
C 858 3929 1216 4096 1466 4096 
C 1728 4096 2067 3923 2189 3400 
C 2272 3036 2278 2607 2278 2096 
C 2278 1680 2278 1169 2202 792 
C 2067 95 1690 -26 1466 -26 
z
" transform="scale(0.015625)"/>
       </defs>
       <use xlink:href="#CMR17-30" transform="scale(0.996264)"/>
      </g>
     </g>
    </g>
    <g id="ytick_2">
     <g id="line2d_15">
      <path d="M 38.619371 33.561943 
L 261.46252 33.561943 
" clip-path="url(#p7a42a01470)" style="fill: none; stroke: #b0b0b0; stroke-width: 0.8; stroke-linecap: square"/>
     </g>
     <g id="line2d_16">
      <g>
       <use xlink:href="#m3bf31e405b" x="38.619371" y="33.561943" style="stroke: #000000; stroke-width: 0.8"/>
      </g>
     </g>
     <g id="text_2">
      <!-- $\mathdefault{1000}$ -->
      <g transform="translate(14.68264 36.329344) scale(0.08 -0.08)">
       <defs>
        <path id="CMR17-31" d="M 1702 4058 
C 1702 4192 1696 4192 1606 4192 
C 1357 3916 979 3827 621 3827 
C 602 3827 570 3827 563 3808 
C 557 3795 557 3782 557 3648 
C 755 3648 1088 3686 1344 3839 
L 1344 461 
C 1344 236 1331 160 781 160 
L 589 160 
L 589 0 
C 896 0 1216 0 1523 0 
C 1830 0 2150 0 2458 0 
L 2458 160 
L 2266 160 
C 1715 160 1702 230 1702 458 
L 1702 4058 
z
" transform="scale(0.015625)"/>
       </defs>
       <use xlink:href="#CMR17-31" transform="scale(0.996264)"/>
       <use xlink:href="#CMR17-30" transform="translate(45.690477 0) scale(0.996264)"/>
       <use xlink:href="#CMR17-30" transform="translate(91.380954 0) scale(0.996264)"/>
       <use xlink:href="#CMR17-30" transform="translate(137.071431 0) scale(0.996264)"/>
      </g>
     </g>
    </g>
    <g id="ytick_3">
     <g id="line2d_17">
      <path d="M 38.619371 6.01922 
L 261.46252 6.01922 
" clip-path="url(#p7a42a01470)" style="fill: none; stroke: #b0b0b0; stroke-width: 0.8; stroke-linecap: square"/>
     </g>
     <g id="line2d_18">
      <g>
       <use xlink:href="#m3bf31e405b" x="38.619371" y="6.01922" style="stroke: #000000; stroke-width: 0.8"/>
      </g>
     </g>
     <g id="text_3">
      <!-- $\mathdefault{2000}$ -->
      <g transform="translate(14.68264 8.786621) scale(0.08 -0.08)">
       <defs>
        <path id="CMR17-32" d="M 2669 989 
L 2554 989 
C 2490 536 2438 459 2413 420 
C 2381 369 1920 369 1830 369 
L 602 369 
C 832 619 1280 1072 1824 1597 
C 2214 1967 2669 2402 2669 3035 
C 2669 3790 2067 4224 1395 4224 
C 691 4224 262 3604 262 3030 
C 262 2780 448 2748 525 2748 
C 589 2748 781 2787 781 3010 
C 781 3207 614 3264 525 3264 
C 486 3264 448 3258 422 3245 
C 544 3790 915 4058 1306 4058 
C 1862 4058 2227 3617 2227 3035 
C 2227 2479 1901 2000 1536 1584 
L 262 146 
L 262 0 
L 2515 0 
L 2669 989 
z
" transform="scale(0.015625)"/>
       </defs>
       <use xlink:href="#CMR17-32" transform="scale(0.996264)"/>
       <use xlink:href="#CMR17-30" transform="translate(45.690477 0) scale(0.996264)"/>
       <use xlink:href="#CMR17-30" transform="translate(91.380954 0) scale(0.996264)"/>
       <use xlink:href="#CMR17-30" transform="translate(137.071431 0) scale(0.996264)"/>
      </g>
     </g>
    </g>
    <g id="text_4">
     <!-- $Q,Q_\mathrm{load}$ [kW] -->
     <g transform="translate(8.19198 62.164688) rotate(-90) scale(0.1 -0.1)">
      <defs>
       <path id="CMMI12-51" d="M 2726 45 
C 3827 490 4646 1663 4646 2829 
C 4646 3893 3955 4544 3059 4544 
C 1690 4544 307 3062 307 1573 
C 307 561 973 -128 1901 -128 
C 2118 -128 2330 -96 2534 -33 
C 2496 -411 2496 -442 2496 -562 
C 2496 -744 2496 -1216 3008 -1216 
C 3770 -1216 4051 -37 4051 2 
C 4051 39 4026 64 3994 64 
C 3955 64 3942 34 3923 -36 
C 3782 -429 3450 -654 3168 -654 
C 2842 -654 2758 -435 2726 45 
z
M 1574 77 
C 1069 252 826 787 826 1379 
C 826 1831 992 2689 1414 3340 
C 1888 4075 2522 4404 3021 4404 
C 3686 4404 4134 3862 4134 3024 
C 4134 2547 3910 948 2707 240 
C 2675 571 2586 960 2163 960 
C 1818 960 1523 609 1523 291 
C 1523 220 1549 123 1574 77 
z
M 2547 156 
C 2317 52 2118 12 1939 12 
C 1875 12 1651 12 1651 298 
C 1651 533 1875 832 2163 832 
C 2483 832 2554 611 2554 286 
C 2554 246 2554 194 2547 156 
z
" transform="scale(0.015625)"/>
       <path id="CMMI12-3b" d="M 1248 -31 
C 1248 343 1126 619 864 619 
C 659 619 557 453 557 313 
C 557 172 653 0 870 0 
C 954 0 1024 26 1082 83 
C 1094 96 1101 96 1107 96 
C 1120 96 1120 5 1120 -27 
C 1120 -240 1082 -659 710 -1080 
C 640 -1157 640 -1170 640 -1183 
C 640 -1216 672 -1248 704 -1248 
C 755 -1248 1248 -771 1248 -31 
z
" transform="scale(0.015625)"/>
       <path id="CMR17-6c" d="M 979 4396 
L 218 4326 
L 218 4160 
C 595 4160 653 4122 653 3817 
L 653 426 
C 653 184 627 153 218 153 
L 218 -13 
C 371 0 653 0 813 0 
C 979 0 1261 0 1414 -13 
L 1414 153 
C 1005 153 979 178 979 426 
L 979 4396 
z
" transform="scale(0.015625)"/>
       <path id="CMR17-6f" d="M 2758 1356 
C 2758 2176 2163 2816 1466 2816 
C 768 2816 173 2176 173 1356 
C 173 551 768 -64 1466 -64 
C 2163 -64 2758 551 2758 1356 
z
M 1466 51 
C 1165 51 909 230 762 480 
C 602 767 582 1126 582 1408 
C 582 1677 595 2010 762 2298 
C 890 2509 1139 2714 1466 2714 
C 1754 2714 1997 2554 2150 2330 
C 2349 2029 2349 1607 2349 1408 
C 2349 1158 2336 775 2163 467 
C 1984 173 1709 51 1466 51 
z
" transform="scale(0.015625)"/>
       <path id="CMR17-61" d="M 2304 1653 
C 2304 2072 2304 2294 2035 2543 
C 1798 2752 1523 2816 1306 2816 
C 800 2816 435 2407 435 1971 
C 435 1728 627 1728 666 1728 
C 749 1728 896 1778 896 1954 
C 896 2112 774 2181 666 2181 
C 640 2181 608 2174 589 2168 
C 723 2592 1069 2714 1293 2714 
C 1613 2714 1965 2429 1965 1885 
L 1965 1600 
C 1587 1600 1133 1549 774 1357 
C 371 1133 256 813 256 570 
C 256 77 832 -64 1171 -64 
C 1523 -64 1850 139 1990 511 
C 2003 233 2182 -18 2464 -18 
C 2598 -18 2938 70 2938 567 
L 2938 920 
L 2822 920 
L 2822 562 
C 2822 178 2650 128 2566 128 
C 2304 128 2304 458 2304 738 
L 2304 1653 
z
M 1965 870 
C 1965 317 1568 38 1216 38 
C 896 38 646 275 646 570 
C 646 761 730 1100 1101 1305 
C 1408 1478 1760 1504 1965 1504 
L 1965 870 
z
" transform="scale(0.015625)"/>
       <path id="CMR17-64" d="M 1869 4326 
L 1869 4160 
C 2246 4160 2304 4122 2304 3820 
L 2304 2345 
C 2278 2377 2016 2790 1498 2790 
C 845 2790 211 2208 211 1364 
C 211 525 806 -64 1434 -64 
C 1978 -64 2259 337 2291 380 
L 2291 -63 
L 3066 -63 
L 3066 128 
C 2688 128 2630 166 2630 473 
L 2630 4396 
L 1869 4326 
z
M 2291 755 
C 2291 563 2176 390 2029 262 
C 1811 70 1594 38 1472 38 
C 1286 38 621 134 621 1356 
C 621 2612 1363 2688 1530 2688 
C 1824 2688 2061 2522 2208 2291 
C 2291 2157 2291 2138 2291 2023 
L 2291 755 
z
" transform="scale(0.015625)"/>
       <path id="CMR17-5b" d="M 1504 -1600 
L 1504 -1377 
L 902 -1377 
L 902 4544 
L 1504 4544 
L 1504 4767 
L 678 4767 
L 678 -1600 
L 1504 -1600 
z
" transform="scale(0.015625)"/>
       <path id="CMR17-6b" d="M 1670 1673 
C 1664 1686 1632 1724 1632 1743 
C 1632 1756 2086 2171 2144 2222 
C 2509 2528 2739 2560 2906 2560 
L 2906 2733 
C 2867 2733 2854 2733 2848 2720 
L 2534 2720 
C 2355 2720 2080 2720 1907 2733 
L 1907 2566 
C 1997 2559 2061 2508 2061 2419 
C 2061 2291 1933 2170 1926 2170 
L 960 1289 
L 960 4396 
L 198 4326 
L 198 4160 
C 576 4160 634 4122 634 3817 
L 634 426 
C 634 184 608 153 198 153 
L 198 -13 
C 352 0 634 0 794 0 
C 954 0 1235 0 1389 -13 
L 1389 153 
C 979 153 954 178 954 428 
L 954 1130 
L 1395 1532 
L 2042 574 
C 2118 459 2182 369 2182 286 
C 2182 172 2067 153 1990 153 
L 1990 -13 
C 2144 0 2419 0 2579 0 
C 2694 0 2931 0 3040 0 
L 3040 153 
C 2739 153 2669 210 2477 491 
L 1670 1673 
z
" transform="scale(0.015625)"/>
       <path id="CMR17-57" d="M 5523 3764 
C 5581 3936 5677 4160 6048 4160 
L 6048 4326 
C 5939 4326 5715 4326 5600 4326 
C 5440 4326 5158 4326 5005 4332 
L 5005 4160 
C 5293 4160 5414 4000 5414 3847 
C 5414 3802 5408 3777 5382 3707 
L 4390 555 
L 3347 3873 
C 3328 3937 3322 3963 3322 3988 
C 3322 4160 3603 4160 3725 4160 
L 3725 4326 
C 3539 4326 3219 4326 3021 4326 
C 2861 4326 2573 4326 2426 4332 
L 2426 4160 
C 2720 4160 2797 4141 2861 4027 
C 2886 3969 2989 3638 2989 3619 
C 2989 3593 2976 3555 2970 3536 
L 2029 561 
L 986 3867 
C 954 3957 954 3969 954 3982 
C 954 4160 1235 4160 1363 4160 
L 1363 4326 
C 1178 4326 858 4326 659 4326 
C 493 4326 211 4326 58 4332 
L 58 4160 
C 442 4160 467 4122 531 3918 
L 1779 -20 
C 1811 -115 1811 -128 1869 -128 
C 1920 -128 1939 -115 1965 -26 
L 3053 3433 
L 4141 -26 
C 4166 -115 4186 -128 4237 -128 
C 4294 -128 4294 -115 4326 -20 
L 5523 3764 
z
" transform="scale(0.015625)"/>
       <path id="CMR17-5d" d="M 915 4767 
L 90 4767 
L 90 4544 
L 691 4544 
L 691 -1377 
L 90 -1377 
L 90 -1600 
L 915 -1600 
L 915 4767 
z
" transform="scale(0.015625)"/>
      </defs>
      <use xlink:href="#CMMI12-51" transform="scale(0.996264)"/>
      <use xlink:href="#CMMI12-3b" transform="translate(77.260399 0) scale(0.996264)"/>
      <use xlink:href="#CMMI12-51" transform="translate(120.961981 0) scale(0.996264)"/>
      <use xlink:href="#CMR17-6c" transform="translate(198.22238 -14.943915) scale(0.697382)"/>
      <use xlink:href="#CMR17-6f" transform="translate(215.632038 -14.943915) scale(0.697382)"/>
      <use xlink:href="#CMR17-61" transform="translate(247.61522 -14.943915) scale(0.697382)"/>
      <use xlink:href="#CMR17-64" transform="translate(279.598402 -14.943915) scale(0.697382)"/>
      <use xlink:href="#CMR17-5b" transform="translate(345.799109 0) scale(0.996264)"/>
      <use xlink:href="#CMR17-6b" transform="translate(370.670168 0) scale(0.996264)"/>
      <use xlink:href="#CMR17-57" transform="translate(418.963083 0) scale(0.996264)"/>
      <use xlink:href="#CMR17-5d" transform="translate(514.059733 0) scale(0.996264)"/>
     </g>
    </g>
   </g>
   <g id="line2d_19">
    <path d="M 48.748606 56.923313 
L 49.594471 56.953257 
L 50.017403 56.664896 
L 50.440336 56.87407 
L 50.863268 56.845735 
L 51.286201 56.528563 
L 51.709133 56.525899 
L 52.554998 56.734566 
L 52.977931 56.649005 
L 53.400863 56.40796 
L 54.246729 56.436209 
L 54.669661 56.301689 
L 55.092593 56.376261 
L 55.515526 56.254039 
L 55.938458 56.346987 
L 56.361391 56.680826 
L 57.207256 56.292826 
L 57.630189 56.191305 
L 58.053121 56.444972 
L 58.476053 56.073512 
L 58.898986 56.209531 
L 59.321918 56.613814 
L 59.744851 56.384757 
L 60.167784 56.31737 
L 60.590716 56.487841 
L 61.013649 56.341331 
L 61.436581 56.498691 
L 62.705378 56.37694 
L 63.551244 56.659076 
L 63.974177 56.539085 
L 64.397109 56.610396 
L 64.820041 56.968711 
L 65.242974 56.368894 
L 65.665906 56.664561 
L 66.511772 56.711651 
L 66.934704 56.837772 
L 67.357637 56.796577 
L 67.780569 57.181905 
L 68.203501 57.0204 
L 68.626435 57.336768 
L 69.049367 56.924288 
L 69.895231 57.193445 
L 72.432826 57.507972 
L 72.85576 57.408734 
L 73.278692 57.160987 
L 73.701624 57.357425 
L 74.970423 57.480614 
L 75.393355 57.258072 
L 76.662151 57.665505 
L 77.085085 57.370412 
L 77.508017 57.593418 
L 77.930949 57.391487 
L 78.353882 36.574633 
L 78.776814 37.784491 
L 79.62268 35.439407 
L 80.045612 35.82713 
L 80.468544 34.564726 
L 80.891476 36.990358 
L 81.31441 36.416031 
L 81.737342 35.594696 
L 82.160275 36.334055 
L 82.583207 35.871981 
L 83.006141 34.78402 
L 83.429071 36.626858 
L 83.852005 34.654663 
L 84.274939 35.96385 
L 85.120803 34.518227 
L 85.543733 35.992455 
L 85.966668 35.869719 
L 86.389602 36.875065 
L 86.812532 33.332646 
L 87.235466 37.370111 
L 87.658396 37.512589 
L 88.08133 34.163741 
L 88.504264 33.329502 
L 88.927194 26.583941 
L 90.195993 22.813728 
L 90.618927 25.913845 
L 91.041857 26.760272 
L 91.464791 25.607358 
L 91.887721 29.107513 
L 92.733589 24.143431 
L 93.156519 24.898197 
L 94.002384 24.366173 
L 94.425318 24.717925 
L 94.848252 25.282954 
L 95.271182 23.939177 
L 95.694116 25.068832 
L 96.117046 25.801233 
L 96.53998 28.566519 
L 96.962915 23.771524 
L 97.385845 25.078925 
L 97.808779 24.1989 
L 98.654643 24.146558 
L 99.077577 24.589847 
L 99.500507 45.030243 
L 99.923441 45.055662 
L 100.346371 44.934778 
L 100.769306 43.090807 
L 101.19224 47.286476 
L 101.61517 46.343454 
L 102.038104 44.177812 
L 102.461034 44.188421 
L 102.883968 44.844153 
L 103.729832 44.569625 
L 104.152766 44.232778 
L 104.575697 45.483144 
L 104.998631 43.396845 
L 105.421565 44.969057 
L 105.844495 45.847571 
L 106.267429 42.662041 
L 106.690359 43.242067 
L 107.113293 44.511194 
L 107.536227 41.580256 
L 107.959157 57.348212 
L 109.227956 57.235846 
L 109.65089 57.7075 
L 110.07382 57.269041 
L 110.496754 57.469545 
L 110.919684 57.086141 
L 111.765553 57.470951 
L 112.188483 57.307118 
L 112.611417 57.280049 
L 113.034347 57.537585 
L 113.457281 57.529556 
L 113.880215 57.364561 
L 114.303145 57.457284 
L 114.726079 57.161537 
L 115.571944 57.358379 
L 115.994878 57.351983 
L 116.417808 56.963555 
L 116.840742 57.19216 
L 117.68661 57.293083 
L 118.109536 57.0585 
L 118.53247 57.03887 
L 118.955404 57.188884 
L 119.378339 57.079993 
L 119.801273 56.834487 
L 120.224199 57.086995 
L 121.493001 56.756416 
L 122.338861 56.905217 
L 122.761795 56.719677 
L 123.607664 56.675899 
L 124.453524 56.441766 
L 125.299392 56.323178 
L 125.722326 56.532472 
L 127.414055 56.465196 
L 127.836989 56.618776 
L 128.259923 56.087974 
L 128.682849 56.263145 
L 129.105783 56.174614 
L 129.951651 56.391706 
L 131.220446 55.970729 
L 131.64338 56.185105 
L 132.066314 56.127037 
L 132.489248 56.257314 
L 133.335108 56.34966 
L 133.758042 56.469496 
L 134.180977 56.006496 
L 135.026837 55.419039 
L 135.872705 54.321971 
L 136.718573 53.051532 
L 137.564433 51.416934 
L 137.987368 50.269105 
L 138.410302 49.662018 
L 139.256162 46.959252 
L 139.679096 46.15866 
L 141.793759 39.484254 
L 142.216693 37.892992 
L 142.639627 36.878049 
L 143.485487 34.010422 
L 143.908421 32.961942 
L 144.331355 31.278472 
L 147.291886 23.711795 
L 147.714812 23.419614 
L 148.137746 22.675013 
L 148.56068 22.531543 
L 149.406549 21.42512 
L 150.675343 21.23835 
L 151.098277 21.532907 
L 151.521211 21.31772 
L 151.944137 20.869068 
L 152.367071 20.834919 
L 152.790006 21.067051 
L 153.21294 20.749033 
L 153.635874 21.047766 
L 154.0588 20.920085 
L 154.481734 20.652458 
L 155.327602 20.824654 
L 155.750536 20.625221 
L 156.596397 20.800188 
L 157.019331 20.277421 
L 157.442265 20.55426 
L 157.865199 20.667658 
L 159.133993 20.365603 
L 159.556927 20.462477 
L 159.979862 20.047924 
L 160.402788 20.15956 
L 160.825722 20.43179 
L 161.67159 20.07548 
L 162.094524 20.19491 
L 162.51745 20.038089 
L 162.940384 20.072128 
L 163.363318 19.744305 
L 163.786253 20.008163 
L 164.209187 19.989913 
L 164.632113 19.85033 
L 165.055047 20.026318 
L 165.477981 19.682821 
L 166.323849 20.045574 
L 166.746775 19.800496 
L 167.169709 19.842315 
L 167.592644 20.002014 
L 168.015578 19.588385 
L 168.438512 19.637933 
L 168.861438 19.961332 
L 169.707306 19.812015 
L 171.399035 19.864811 
L 172.244903 19.563425 
L 174.359565 19.993386 
L 174.7825 19.792316 
L 175.205426 19.794058 
L 176.051294 20.096402 
L 176.474228 20.123169 
L 176.897162 19.947516 
L 177.320088 20.144219 
L 177.743022 19.82149 
L 178.165956 20.482475 
L 178.588891 20.090384 
L 179.011825 20.044965 
L 179.434751 20.164671 
L 179.857685 20.078512 
L 180.280619 20.29137 
L 181.972347 20.233255 
L 182.395282 20.461051 
L 182.818216 20.185214 
L 183.24115 20.529908 
L 183.664076 20.258465 
L 184.509952 20.683155 
L 185.355804 20.636111 
L 186.201673 20.24079 
L 186.624615 20.543709 
L 187.470467 20.661146 
L 187.893409 20.566152 
L 188.316335 20.765342 
L 188.739277 20.597786 
L 189.585129 20.659586 
L 190.008072 20.837672 
L 190.430998 20.753393 
L 190.85394 20.546406 
L 191.276866 20.757374 
L 191.699792 20.826285 
L 192.968602 20.636542 
L 194.660323 21.142387 
L 195.083265 20.785334 
L 195.506191 21.154814 
L 195.929117 20.838577 
L 196.352059 20.700974 
L 197.620854 21.062587 
L 198.04378 20.872319 
L 198.466722 20.806246 
L 198.889648 21.033844 
L 199.31259 20.786346 
L 199.735516 20.720454 
L 200.581384 21.076375 
L 201.004311 20.748727 
L 201.427253 20.637244 
L 202.696047 20.934737 
L 203.118973 20.681514 
L 203.541915 20.781988 
L 203.964841 20.48041 
L 204.387767 20.509547 
L 205.233636 21.037286 
L 205.656578 20.675307 
L 206.079504 20.750586 
L 206.925372 20.624586 
L 207.348298 20.744796 
L 207.77124 20.654459 
L 208.194167 20.682486 
L 208.617093 20.529084 
L 209.040035 20.882063 
L 210.308829 20.489818 
L 210.731755 20.791796 
L 211.154697 20.432557 
L 211.577623 20.574174 
L 212.000566 20.523268 
L 212.423492 20.695117 
L 214.115228 20.652512 
L 214.538154 20.537526 
L 214.96108 20.762454 
L 215.384022 20.445138 
L 215.806949 21.021804 
L 216.229891 20.962408 
L 216.652817 20.517078 
L 217.075743 20.892085 
L 217.921611 20.775153 
L 218.344553 20.684617 
L 219.190405 21.151559 
L 219.613348 21.838251 
L 220.036274 22.198031 
L 220.882142 23.535302 
L 221.305068 24.338903 
L 221.72801 25.395589 
L 222.150936 26.150486 
L 225.111467 34.985944 
L 229.340792 48.583042 
L 229.763718 49.739073 
L 230.609587 51.362878 
L 231.455455 53.340413 
L 232.301323 54.840575 
L 233.147191 55.760112 
L 233.570117 55.760318 
L 234.415986 56.707896 
L 234.838912 56.453794 
L 235.261854 56.38425 
L 235.68478 56.14886 
L 236.107706 56.47411 
L 236.530648 56.088837 
L 236.953574 56.495076 
L 237.799442 56.148978 
L 238.222369 56.316982 
L 239.068237 56.263839 
L 239.491179 56.394572 
L 239.914105 56.175598 
L 240.337031 56.253541 
L 240.759973 56.167218 
L 241.182899 55.948823 
L 241.605842 56.291041 
L 242.028768 56.100613 
L 242.874636 56.326787 
L 244.989298 56.377019 
L 245.835167 56.661543 
L 246.258093 56.296339 
L 246.681019 56.555197 
L 247.526887 56.627774 
L 247.949829 56.911826 
L 248.372755 56.714598 
L 249.218624 56.515411 
L 249.64155 56.929533 
L 250.064492 56.833283 
L 250.487418 56.867893 
L 250.910344 57.077637 
L 251.333286 57.001117 
L 251.333286 57.001117 
" clip-path="url(#p7a42a01470)" style="fill: none; stroke-dasharray: 5.55,2.4; stroke-dashoffset: 0; stroke: #000000; stroke-opacity: 0.95; stroke-width: 1.5"/>
   </g>
   <g id="line2d_20">
    <path d="M 48.748606 61.104666 
L 49.171538 61.052658 
L 50.017403 60.09134 
L 50.863268 58.936738 
L 51.709133 58.0379 
L 52.554998 57.450245 
L 53.823796 56.976877 
L 55.515526 56.604736 
L 56.784323 56.485705 
L 63.551244 56.411937 
L 71.586962 57.148408 
L 74.547488 57.347698 
L 78.353882 57.460999 
L 85.966668 41.596389 
L 89.773059 25.731781 
L 91.041857 22.985537 
L 91.464791 22.10417 
L 95.694116 4.476827 
L 96.117046 3.59546 
L 96.53998 4.129262 
L 96.962915 5.010626 
L 102.461034 39.383944 
L 106.267429 55.248553 
L 106.690359 56.477489 
L 108.805022 60.884324 
L 109.227956 61.104666 
L 110.496754 61.104666 
L 110.919684 60.778136 
L 111.765553 59.248229 
L 112.611417 58.415679 
L 113.457281 57.957446 
L 115.149009 57.570115 
L 117.68661 57.296584 
L 121.070067 57.083439 
L 124.453524 56.786516 
L 126.991121 56.518466 
L 133.758042 56.221694 
L 134.603911 56.241572 
L 135.449771 56.083196 
L 136.295639 55.673857 
L 137.141499 54.975797 
L 137.987368 53.990831 
L 139.256162 51.913294 
L 144.331355 41.34912 
L 148.137746 25.629639 
L 149.829475 22.10417 
L 153.21294 8.002296 
L 154.0588 6.239562 
L 155.327602 8.883663 
L 158.288125 27.140286 
L 159.133993 28.90302 
L 159.979862 27.140286 
L 161.248656 19.207982 
L 161.67159 17.536187 
L 162.094524 16.976006 
L 162.51745 17.709035 
L 162.940384 19.357927 
L 163.363318 19.924741 
L 165.477981 19.961032 
L 166.323849 19.849069 
L 167.169709 19.868835 
L 172.667837 19.707725 
L 173.513697 19.743017 
L 175.205426 19.884782 
L 176.051294 19.89274 
L 177.320088 19.997226 
L 177.743022 20.051975 
L 178.165956 19.97947 
L 178.588891 20.151938 
L 180.280619 20.107884 
L 181.126487 20.200999 
L 184.08701 20.331988 
L 185.778746 20.599319 
L 187.047541 20.478363 
L 189.162203 20.633476 
L 194.660323 20.833671 
L 195.083265 20.942043 
L 195.506191 20.895572 
L 195.929117 20.992439 
L 197.620854 20.875759 
L 198.466722 20.916847 
L 200.581384 20.842907 
L 201.004311 20.915637 
L 202.696047 20.801489 
L 203.541915 20.788504 
L 204.387767 20.683481 
L 205.233636 20.656473 
L 205.656578 20.774494 
L 209.040035 20.628019 
L 209.885903 20.7339 
L 212.000566 20.591657 
L 212.846418 20.599124 
L 214.538154 20.678626 
L 215.806949 20.596452 
L 216.652817 20.8156 
L 217.075743 20.71959 
L 217.921611 20.780375 
L 219.190405 20.818481 
L 219.613348 20.937444 
L 220.459216 21.58767 
L 221.305068 22.587156 
L 222.150936 24.042291 
L 222.996804 25.791526 
L 225.957335 34.209009 
L 229.763718 46.983456 
L 230.609587 49.743557 
L 231.032529 50.854875 
L 231.878381 54.339143 
L 233.147191 55.977378 
L 233.570117 55.750841 
L 233.993043 55.660341 
L 234.838912 55.830714 
L 236.107706 56.114976 
L 237.376516 56.24412 
L 240.759973 56.270809 
L 244.566356 56.254322 
L 248.372755 56.537043 
L 251.333286 56.771314 
L 251.333286 56.771314 
" clip-path="url(#p7a42a01470)" style="fill: none; stroke: #1f77b4; stroke-opacity: 0.95; stroke-width: 1.5; stroke-linecap: square"/>
   </g>
   <g id="line2d_21">
    <path d="M 48.748606 61.104666 
L 49.594471 60.611173 
L 52.554998 58.450893 
L 53.823796 57.866702 
L 55.515526 57.364829 
L 56.784323 57.148097 
L 59.321918 56.902527 
L 63.128311 56.790292 
L 68.626435 56.939046 
L 72.009894 57.114151 
L 72.432826 57.2642 
L 72.85576 57.254531 
L 73.701624 56.403617 
L 74.124556 56.433996 
L 74.547488 54.603581 
L 75.393355 52.374499 
L 76.239219 55.326383 
L 76.662151 56.054757 
L 77.085085 56.293987 
L 77.508017 55.716804 
L 77.930949 55.712471 
L 78.353882 55.48019 
L 81.31441 36.971481 
L 81.737342 35.124966 
L 82.160275 35.473567 
L 82.583207 36.469413 
L 83.006141 36.660632 
L 83.429071 37.618799 
L 83.852005 36.743808 
L 84.274939 36.375295 
L 84.697869 36.497267 
L 85.120803 36.168657 
L 85.543733 37.185005 
L 85.966668 36.794377 
L 86.389602 37.365473 
L 86.812532 37.392849 
L 87.235466 36.782856 
L 88.504264 31.643676 
L 88.927194 29.934245 
L 89.350128 29.488071 
L 90.618927 27.520064 
L 91.041857 28.31304 
L 91.464791 27.387666 
L 91.887721 27.320342 
L 92.310655 26.386391 
L 92.733589 26.251966 
L 93.156519 25.537509 
L 93.579454 23.453525 
L 94.002384 22.787144 
L 94.425318 23.389755 
L 94.848252 25.283778 
L 95.271182 23.617077 
L 95.694116 24.655103 
L 96.117046 22.011002 
L 96.53998 23.268751 
L 96.962915 23.150565 
L 97.385845 23.737448 
L 97.808779 23.984079 
L 98.231709 25.915711 
L 100.346371 38.524233 
L 100.769306 39.968887 
L 101.19224 40.754521 
L 101.61517 41.955729 
L 102.038104 42.015177 
L 102.461034 41.45165 
L 103.306902 43.598014 
L 103.729832 43.087541 
L 104.152766 43.733786 
L 104.575697 43.114759 
L 104.998631 42.876524 
L 105.421565 42.248259 
L 107.959157 53.556784 
L 108.382092 54.00239 
L 108.805022 53.963684 
L 109.65089 54.353163 
L 111.342618 55.354426 
L 113.034347 55.946372 
L 115.149009 56.435362 
L 117.68661 56.732394 
L 119.801273 56.812681 
L 125.299392 56.65464 
L 133.335108 56.385971 
L 134.180977 56.428494 
L 135.449771 51.453563 
L 135.872705 51.567438 
L 136.295639 52.491994 
L 136.718573 52.898275 
L 137.141499 53.001183 
L 137.564433 52.7966 
L 138.410302 51.639081 
L 139.256162 49.97467 
L 140.947898 45.734741 
L 142.216693 41.999326 
L 145.177224 32.956622 
L 147.291886 27.281062 
L 148.137746 25.444246 
L 148.983615 24.190266 
L 149.406549 23.626037 
L 151.521211 22.331845 
L 152.367071 21.956515 
L 152.790006 21.959685 
L 153.21294 21.760216 
L 154.481734 21.504877 
L 155.327602 21.353648 
L 155.750536 21.352488 
L 156.173462 21.193542 
L 156.596397 21.238417 
L 159.133993 20.808015 
L 161.248656 20.615666 
L 161.67159 20.468296 
L 162.094524 20.503518 
L 163.363318 20.24892 
L 164.209187 20.226121 
L 165.900915 20.115056 
L 166.323849 20.172101 
L 168.015578 19.984846 
L 169.284372 20.05951 
L 170.13024 19.933385 
L 172.244903 19.828654 
L 173.513697 20.025333 
L 173.936631 19.909191 
L 174.359565 19.986615 
L 174.7825 19.903408 
L 175.62836 20.091931 
L 176.897162 20.06618 
L 177.320088 20.163101 
L 179.011825 20.080893 
L 179.434751 20.244135 
L 179.857685 20.210436 
L 180.280619 20.315393 
L 181.126487 20.198975 
L 183.664076 20.487387 
L 190.85394 20.743065 
L 191.276866 20.663994 
L 192.54566 20.781054 
L 198.04378 21.001382 
L 199.31259 20.810836 
L 199.735516 20.936879 
L 201.850179 20.803183 
L 202.696047 20.819934 
L 203.118973 20.686984 
L 206.079504 20.736609 
L 207.348298 20.687213 
L 209.040035 20.721224 
L 211.577623 20.593483 
L 212.423492 20.643091 
L 214.538154 20.387998 
L 214.96108 20.486412 
L 215.806949 20.17511 
L 217.075743 19.641262 
L 217.498685 19.458213 
L 218.767479 19.438047 
L 219.190405 19.536322 
L 219.613348 19.768613 
L 220.036274 20.141516 
L 221.305068 21.8813 
L 222.150936 23.58203 
L 223.419731 26.855213 
L 224.688541 30.706631 
L 227.22613 38.638087 
L 227.649056 39.368838 
L 228.071998 39.699088 
L 230.609587 51.979203 
L 231.032529 53.668614 
L 231.455455 54.403114 
L 232.301323 54.179498 
L 233.147191 54.262066 
L 234.838912 54.786682 
L 236.530648 55.263866 
L 239.491179 55.703286 
L 242.028768 55.893474 
L 247.103961 56.215738 
L 251.333286 56.578781 
L 251.333286 56.578781 
" clip-path="url(#p7a42a01470)" style="fill: none; stroke-dasharray: 5.55,2.4; stroke-dashoffset: 0; stroke: #dc143c; stroke-opacity: 0.95; stroke-width: 1.5"/>
   </g>
   <g id="patch_3">
    <path d="M 38.619371 63.980126 
L 38.619371 0.72 
" style="fill: none; stroke: #000000; stroke-width: 0.8; stroke-linejoin: miter; stroke-linecap: square"/>
   </g>
   <g id="patch_4">
    <path d="M 261.46252 63.980126 
L 261.46252 0.72 
" style="fill: none; stroke: #000000; stroke-width: 0.8; stroke-linejoin: miter; stroke-linecap: square"/>
   </g>
   <g id="patch_5">
    <path d="M 38.619371 63.980126 
L 261.46252 63.980126 
" style="fill: none; stroke: #000000; stroke-width: 0.8; stroke-linejoin: miter; stroke-linecap: square"/>
   </g>
   <g id="patch_6">
    <path d="M 38.619371 0.72 
L 261.46252 0.72 
" style="fill: none; stroke: #000000; stroke-width: 0.8; stroke-linejoin: miter; stroke-linecap: square"/>
   </g>
   <g id="legend_1">
    <g id="patch_7">
     <path d="M 41.619371 30.844938 
L 90.444684 30.844938 
L 90.444684 3.72 
L 41.619371 3.72 
z
" style="fill: #ffffff; stroke: #808080; stroke-linejoin: miter"/>
    </g>
    <g id="line2d_22">
     <path d="M 44.019371 8.22 
L 50.019371 8.22 
L 56.019371 8.22 
" style="fill: none; stroke-dasharray: 5.55,2.4; stroke-dashoffset: 0; stroke: #000000; stroke-opacity: 0.95; stroke-width: 1.5"/>
    </g>
    <g id="text_5">
     <!-- $Q_\mathrm{load}$ -->
     <g transform="translate(60.819371 10.32) scale(0.06 -0.06)">
      <use xlink:href="#CMMI12-51" transform="scale(0.996264)"/>
      <use xlink:href="#CMR17-6c" transform="translate(77.260399 -14.943915) scale(0.697382)"/>
      <use xlink:href="#CMR17-6f" transform="translate(94.670057 -14.943915) scale(0.697382)"/>
      <use xlink:href="#CMR17-61" transform="translate(126.653239 -14.943915) scale(0.697382)"/>
      <use xlink:href="#CMR17-64" transform="translate(158.636421 -14.943915) scale(0.697382)"/>
     </g>
    </g>
    <g id="line2d_23">
     <path d="M 44.019371 16.820312 
L 50.019371 16.820312 
L 56.019371 16.820312 
" style="fill: none; stroke: #1f77b4; stroke-opacity: 0.95; stroke-width: 1.5; stroke-linecap: square"/>
    </g>
    <g id="text_6">
     <!-- RBC -->
     <g transform="translate(60.819371 18.920312) scale(0.06 -0.06)">
      <defs>
       <path id="CMR17-52" d="M 2509 2146 
C 3117 2268 3629 2676 3629 3186 
C 3629 3785 2950 4326 2054 4326 
L 333 4326 
L 333 4160 
C 774 4160 845 4160 845 3873 
L 845 415 
C 845 128 774 128 333 128 
L 333 -26 
C 518 -26 851 -26 1050 -26 
C 1248 -26 1581 -26 1766 -26 
L 1766 128 
C 1325 128 1254 128 1254 417 
L 1254 2112 
L 2003 2112 
C 2368 2112 2573 1964 2662 1881 
C 2918 1632 2918 1459 2918 1024 
C 2918 595 2918 377 3110 160 
C 3354 -102 3680 -128 3821 -128 
C 4294 -128 4365 396 4365 503 
C 4365 540 4365 585 4307 585 
C 4256 585 4250 547 4250 522 
C 4218 112 4032 -26 3834 -26 
C 3482 -26 3443 375 3405 764 
C 3386 898 3373 993 3360 1133 
C 3322 1452 3270 1917 2509 2146 
z
M 1984 2214 
L 1254 2214 
L 1254 3913 
C 1254 4129 1267 4160 1523 4160 
L 1990 4160 
C 2522 4160 3142 3977 3142 3190 
C 3142 2372 2464 2214 1984 2214 
z
" transform="scale(0.015625)"/>
       <path id="CMR17-42" d="M 333 4352 
L 333 4186 
C 774 4186 845 4186 845 3900 
L 845 452 
C 845 166 774 166 333 166 
L 333 0 
L 2534 0 
C 3354 0 3885 583 3885 1164 
C 3885 1741 3360 2233 2675 2233 
C 3290 2356 3718 2771 3718 3264 
C 3718 3802 3194 4352 2368 4352 
L 333 4352 
z
M 1248 2304 
L 1248 3937 
C 1248 4155 1261 4186 1517 4186 
L 2336 4186 
C 2970 4186 3251 3674 3251 3277 
C 3251 2791 2861 2304 2170 2304 
L 1248 2304 
z
M 1517 166 
C 1261 166 1248 197 1248 413 
L 1248 2202 
L 2432 2202 
C 3091 2202 3411 1625 3411 1162 
C 3411 699 3046 166 2349 166 
L 1517 166 
z
" transform="scale(0.015625)"/>
       <path id="CMR17-43" d="M 3974 4289 
C 3974 4403 3968 4410 3930 4410 
C 3904 4410 3898 4403 3853 4327 
L 3571 3792 
C 3258 4187 2874 4416 2381 4416 
C 1286 4416 294 3456 294 2148 
C 294 826 1286 -128 2387 -128 
C 3366 -128 3974 730 3974 1461 
C 3974 1524 3974 1550 3917 1550 
C 3866 1550 3866 1531 3859 1474 
C 3808 585 3168 38 2477 38 
C 1824 38 781 495 781 2147 
C 781 3805 1843 4250 2464 4250 
C 3187 4250 3712 3628 3834 2745 
C 3846 2668 3846 2655 3904 2655 
C 3974 2655 3974 2668 3974 2783 
L 3974 4289 
z
" transform="scale(0.015625)"/>
      </defs>
      <use xlink:href="#CMR17-52" transform="scale(0.996264)"/>
      <use xlink:href="#CMR17-42" transform="translate(67.791102 0) scale(0.996264)"/>
      <use xlink:href="#CMR17-43" transform="translate(132.979856 0) scale(0.996264)"/>
     </g>
    </g>
    <g id="line2d_24">
     <path d="M 44.019371 25.182625 
L 50.019371 25.182625 
L 56.019371 25.182625 
" style="fill: none; stroke-dasharray: 5.55,2.4; stroke-dashoffset: 0; stroke: #dc143c; stroke-opacity: 0.95; stroke-width: 1.5"/>
    </g>
    <g id="text_7">
     <!-- MI-DPC -->
     <g transform="translate(60.819371 27.282625) scale(0.06 -0.06)">
      <defs>
       <path id="CMR17-4d" d="M 1338 4224 
C 1299 4320 1293 4320 1158 4320 
L 339 4320 
L 339 4160 
C 781 4160 851 4160 851 3875 
L 851 610 
C 851 451 851 153 339 153 
L 339 -13 
C 486 0 755 0 915 0 
C 1075 0 1344 0 1491 -13 
L 1491 153 
C 979 153 979 451 979 610 
L 979 4135 
L 986 4135 
L 2490 89 
C 2515 25 2528 -13 2579 -13 
C 2630 -13 2643 25 2669 89 
L 4186 4166 
L 4192 4166 
L 4192 438 
C 4192 153 4122 153 3680 153 
L 3680 -13 
C 3853 0 4198 0 4384 0 
C 4570 0 4922 0 5094 -13 
L 5094 153 
C 4653 153 4582 153 4582 438 
L 4582 3875 
C 4582 4160 4653 4160 5094 4160 
L 5094 4320 
L 4282 4320 
C 4147 4320 4141 4314 4102 4218 
L 2720 502 
L 1338 4224 
z
" transform="scale(0.015625)"/>
       <path id="CMR17-49" d="M 1261 3905 
C 1261 4192 1338 4192 1798 4192 
L 1798 4352 
C 1594 4352 1267 4352 1050 4352 
C 832 4352 506 4352 301 4352 
L 301 4192 
C 762 4192 838 4192 838 3905 
L 838 447 
C 838 160 762 160 301 160 
L 301 0 
C 506 0 832 0 1050 0 
C 1267 0 1594 0 1798 0 
L 1798 160 
C 1338 160 1261 160 1261 447 
L 1261 3905 
z
" transform="scale(0.015625)"/>
       <path id="CMR17-2d" d="M 1632 1216 
L 1632 1496 
L 26 1496 
L 26 1216 
L 1632 1216 
z
" transform="scale(0.015625)"/>
       <path id="CMR17-44" d="M 333 4352 
L 333 4186 
C 774 4186 845 4186 845 3900 
L 845 452 
C 845 166 774 166 333 166 
L 333 0 
L 2368 0 
C 3398 0 4224 943 4224 2141 
C 4224 3346 3411 4352 2368 4352 
L 333 4352 
z
M 1523 166 
C 1267 166 1254 197 1254 414 
L 1254 3938 
C 1254 4155 1267 4186 1523 4186 
L 2240 4186 
C 2771 4186 3750 3874 3750 2141 
C 3750 1242 3488 879 3366 707 
C 3213 510 2848 166 2240 166 
L 1523 166 
z
" transform="scale(0.015625)"/>
       <path id="CMR17-50" d="M 1267 2042 
L 2291 2042 
C 3117 2042 3718 2578 3718 3184 
C 3718 3791 3130 4352 2291 4352 
L 333 4352 
L 333 4186 
C 774 4186 845 4186 845 3899 
L 845 446 
C 845 160 774 160 333 160 
L 333 0 
C 518 0 858 0 1056 0 
C 1254 0 1594 0 1779 0 
L 1779 160 
C 1338 160 1267 160 1267 446 
L 1267 2042 
z
M 1254 2176 
L 1254 3938 
C 1254 4155 1267 4186 1523 4186 
L 2170 4186 
C 2995 4186 3232 3714 3232 3184 
C 3232 2604 2950 2176 2170 2176 
L 1254 2176 
z
" transform="scale(0.015625)"/>
      </defs>
      <use xlink:href="#CMR17-4d" transform="scale(0.996264)"/>
      <use xlink:href="#CMR17-49" transform="translate(84.686941 0) scale(0.996264)"/>
      <use xlink:href="#CMR17-2d" transform="translate(117.32535 0) scale(0.996264)"/>
      <use xlink:href="#CMR17-44" transform="translate(147.401316 0) scale(0.996264)"/>
      <use xlink:href="#CMR17-50" transform="translate(217.794872 0) scale(0.996264)"/>
      <use xlink:href="#CMR17-43" transform="translate(280.381173 0) scale(0.996264)"/>
     </g>
    </g>
   </g>
  </g>
  <g id="axes_2">
   <g id="patch_8">
    <path d="M 38.619371 132.294503 
L 261.46252 132.294503 
L 261.46252 69.034377 
L 38.619371 69.034377 
L 38.619371 132.294503 
z
" style="fill: none"/>
   </g>
   <g id="matplotlib.axis_3">
    <g id="xtick_7">
     <g id="line2d_25">
      <path d="M 48.748606 132.294503 
L 48.748606 69.034377 
" clip-path="url(#p3fcd47a46a)" style="fill: none; stroke: #b0b0b0; stroke-width: 0.8; stroke-linecap: square"/>
     </g>
     <g id="line2d_26">
      <g>
       <use xlink:href="#m615bc70acb" x="48.748606" y="132.294503" style="stroke: #000000; stroke-width: 0.8"/>
      </g>
     </g>
    </g>
    <g id="xtick_8">
     <g id="line2d_27">
      <path d="M 91.041857 132.294503 
L 91.041857 69.034377 
" clip-path="url(#p3fcd47a46a)" style="fill: none; stroke: #b0b0b0; stroke-width: 0.8; stroke-linecap: square"/>
     </g>
     <g id="line2d_28">
      <g>
       <use xlink:href="#m615bc70acb" x="91.041857" y="132.294503" style="stroke: #000000; stroke-width: 0.8"/>
      </g>
     </g>
    </g>
    <g id="xtick_9">
     <g id="line2d_29">
      <path d="M 133.335108 132.294503 
L 133.335108 69.034377 
" clip-path="url(#p3fcd47a46a)" style="fill: none; stroke: #b0b0b0; stroke-width: 0.8; stroke-linecap: square"/>
     </g>
     <g id="line2d_30">
      <g>
       <use xlink:href="#m615bc70acb" x="133.335108" y="132.294503" style="stroke: #000000; stroke-width: 0.8"/>
      </g>
     </g>
    </g>
    <g id="xtick_10">
     <g id="line2d_31">
      <path d="M 175.62836 132.294503 
L 175.62836 69.034377 
" clip-path="url(#p3fcd47a46a)" style="fill: none; stroke: #b0b0b0; stroke-width: 0.8; stroke-linecap: square"/>
     </g>
     <g id="line2d_32">
      <g>
       <use xlink:href="#m615bc70acb" x="175.62836" y="132.294503" style="stroke: #000000; stroke-width: 0.8"/>
      </g>
     </g>
    </g>
    <g id="xtick_11">
     <g id="line2d_33">
      <path d="M 217.921611 132.294503 
L 217.921611 69.034377 
" clip-path="url(#p3fcd47a46a)" style="fill: none; stroke: #b0b0b0; stroke-width: 0.8; stroke-linecap: square"/>
     </g>
     <g id="line2d_34">
      <g>
       <use xlink:href="#m615bc70acb" x="217.921611" y="132.294503" style="stroke: #000000; stroke-width: 0.8"/>
      </g>
     </g>
    </g>
    <g id="xtick_12">
     <g id="line2d_35">
      <path d="M 260.214862 132.294503 
L 260.214862 69.034377 
" clip-path="url(#p3fcd47a46a)" style="fill: none; stroke: #b0b0b0; stroke-width: 0.8; stroke-linecap: square"/>
     </g>
     <g id="line2d_36">
      <g>
       <use xlink:href="#m615bc70acb" x="260.214862" y="132.294503" style="stroke: #000000; stroke-width: 0.8"/>
      </g>
     </g>
    </g>
   </g>
   <g id="matplotlib.axis_4">
    <g id="ytick_4">
     <g id="line2d_37">
      <path d="M 38.619371 117.31684 
L 261.46252 117.31684 
" clip-path="url(#p3fcd47a46a)" style="fill: none; stroke: #b0b0b0; stroke-width: 0.8; stroke-linecap: square"/>
     </g>
     <g id="line2d_38">
      <g>
       <use xlink:href="#m3bf31e405b" x="38.619371" y="117.31684" style="stroke: #000000; stroke-width: 0.8"/>
      </g>
     </g>
     <g id="text_8">
      <!-- $\mathdefault{0}$ -->
      <g transform="translate(27.385189 120.084241) scale(0.08 -0.08)">
       <use xlink:href="#CMR17-30" transform="scale(0.996264)"/>
      </g>
     </g>
    </g>
    <g id="ytick_5">
     <g id="line2d_39">
      <path d="M 38.619371 82.704204 
L 261.46252 82.704204 
" clip-path="url(#p3fcd47a46a)" style="fill: none; stroke: #b0b0b0; stroke-width: 0.8; stroke-linecap: square"/>
     </g>
     <g id="line2d_40">
      <g>
       <use xlink:href="#m3bf31e405b" x="38.619371" y="82.704204" style="stroke: #000000; stroke-width: 0.8"/>
      </g>
     </g>
     <g id="text_9">
      <!-- $\mathdefault{50}$ -->
      <g transform="translate(23.151006 85.471605) scale(0.08 -0.08)">
       <defs>
        <path id="CMR17-35" d="M 730 3692 
C 794 3666 1056 3584 1325 3584 
C 1920 3584 2246 3911 2432 4100 
C 2432 4157 2432 4192 2394 4192 
C 2387 4192 2374 4192 2323 4163 
C 2099 4058 1837 3973 1517 3973 
C 1325 3973 1037 3999 723 4139 
C 653 4171 640 4171 634 4171 
C 602 4171 595 4164 595 4037 
L 595 2203 
C 595 2089 595 2057 659 2057 
C 691 2057 704 2070 736 2114 
C 941 2401 1222 2522 1542 2522 
C 1766 2522 2246 2382 2246 1289 
C 2246 1085 2246 715 2054 421 
C 1894 159 1645 25 1370 25 
C 947 25 518 320 403 814 
C 429 807 480 795 506 795 
C 589 795 749 840 749 1038 
C 749 1210 627 1280 506 1280 
C 358 1280 262 1190 262 1011 
C 262 454 704 -128 1382 -128 
C 2042 -128 2669 440 2669 1264 
C 2669 2030 2170 2624 1549 2624 
C 1222 2624 947 2503 730 2274 
L 730 3692 
z
" transform="scale(0.015625)"/>
       </defs>
       <use xlink:href="#CMR17-35" transform="scale(0.996264)"/>
       <use xlink:href="#CMR17-30" transform="translate(45.690477 0) scale(0.996264)"/>
      </g>
     </g>
    </g>
    <g id="text_10">
     <!-- $T_\mathrm{r}$ [°C] -->
     <g transform="translate(16.660346 115.066639) rotate(-90) scale(0.1 -0.1)">
      <defs>
       <path id="CMMI12-54" d="M 2669 3910 
C 2707 4064 2720 4121 2816 4147 
C 2867 4160 3078 4160 3213 4160 
C 3853 4160 4154 4134 4154 3634 
C 4154 3537 4128 3295 4090 3057 
L 4083 2980 
C 4083 2954 4109 2916 4147 2916 
C 4211 2916 4211 2948 4230 3050 
L 4416 4184 
C 4429 4243 4429 4256 4429 4275 
C 4429 4345 4390 4345 4262 4345 
L 762 4345 
C 614 4345 608 4339 570 4224 
L 179 3070 
C 173 3056 154 2986 154 2980 
C 154 2948 179 2916 218 2916 
C 269 2916 282 2941 307 3024 
C 576 3801 710 4160 1562 4160 
L 1990 4160 
C 2144 4160 2208 4160 2208 4089 
C 2208 4069 2208 4057 2176 3941 
L 1318 499 
C 1254 249 1242 185 563 185 
C 403 185 358 185 358 64 
C 358 0 429 0 461 0 
C 621 0 787 0 947 0 
L 1946 0 
C 2106 0 2278 0 2438 0 
C 2509 0 2573 0 2573 121 
C 2573 185 2528 185 2362 185 
C 1786 185 1786 243 1786 339 
C 1786 346 1786 391 1811 494 
L 2669 3910 
z
" transform="scale(0.015625)"/>
       <path id="CMR17-72" d="M 960 1497 
C 960 2112 1222 2688 1702 2688 
C 1747 2688 1792 2682 1837 2662 
C 1837 2662 1696 2617 1696 2452 
C 1696 2298 1818 2234 1914 2234 
C 1990 2234 2131 2279 2131 2458 
C 2131 2663 1926 2790 1709 2790 
C 1222 2790 1011 2317 947 2093 
L 941 2093 
L 941 2790 
L 198 2720 
L 198 2554 
C 576 2554 634 2515 634 2208 
L 634 428 
C 634 184 608 153 198 153 
L 198 -13 
C 352 0 646 0 813 0 
C 998 0 1325 0 1498 -13 
L 1498 153 
C 1037 153 960 153 960 440 
L 960 1497 
z
" transform="scale(0.015625)"/>
       <path id="SFRM3583-b0" d="M 890 4416 
C 544 4371 326 4080 326 3776 
C 326 3453 576 3136 960 3136 
L 1018 3136 
C 1357 3181 1587 3472 1587 3776 
C 1587 4105 1312 4416 947 4416 
L 890 4416 
z
M 525 3737 
L 525 3776 
C 525 4003 723 4204 947 4204 
C 1178 4204 1338 4026 1382 3815 
L 1382 3776 
C 1382 3545 1184 3341 960 3341 
C 730 3341 570 3522 525 3737 
z
" transform="scale(0.015625)"/>
      </defs>
      <use xlink:href="#CMMI12-54" transform="scale(0.996264)"/>
      <use xlink:href="#CMR17-72" transform="translate(57.175044 -14.943915) scale(0.697382)"/>
      <use xlink:href="#CMR17-5b" transform="translate(112.445562 0) scale(0.996264)"/>
      <use xlink:href="#SFRM3583-b0" transform="translate(137.316621 0) scale(0.356961)"/>
      <use xlink:href="#CMR17-43" transform="translate(147.957519 0) scale(0.996264)"/>
      <use xlink:href="#CMR17-5d" transform="translate(214.467399 0) scale(0.996264)"/>
     </g>
    </g>
   </g>
   <g id="line2d_41">
    <path d="M 48.748606 111.778818 
L 49.594471 111.076376 
L 50.863268 109.817649 
L 51.709133 109.22329 
L 52.554998 108.845306 
L 54.246729 108.473909 
L 56.361391 108.240278 
L 67.780569 108.354912 
L 71.586962 108.649058 
L 75.393355 108.792877 
L 78.353882 108.84165 
L 78.776814 107.391741 
L 79.62268 103.256221 
L 82.160275 88.35821 
L 83.429071 82.43946 
L 84.697869 77.660594 
L 85.966668 73.933696 
L 86.389602 73.002177 
L 87.235466 71.93785 
L 87.658396 71.909837 
L 88.504264 72.644991 
L 88.927194 73.21426 
L 89.773059 73.697047 
L 90.195993 73.839256 
L 90.618927 73.853611 
L 91.041857 74.076607 
L 91.887721 75.006687 
L 92.733589 77.312949 
L 93.579454 80.308031 
L 94.425318 84.179464 
L 95.271182 89.096638 
L 96.117046 95.046026 
L 97.808779 107.724985 
L 98.654643 111.773669 
L 99.077577 113.143929 
L 99.500507 114.094523 
L 100.769306 120.550311 
L 102.038104 126.438382 
L 102.461034 127.722084 
L 102.883968 128.558973 
L 103.306902 129.1229 
L 103.729832 129.418779 
L 104.152766 129.419043 
L 104.575697 129.109491 
L 104.998631 128.603826 
L 105.844495 126.617132 
L 106.267429 125.325366 
L 107.113293 121.621454 
L 108.382092 115.723213 
L 109.227956 113.523379 
L 110.07382 112.031343 
L 111.342618 110.343879 
L 112.188483 109.654709 
L 113.034347 109.26016 
L 114.303145 109.006278 
L 117.68661 108.740352 
L 122.338861 108.542848 
L 125.299392 108.351383 
L 127.414055 108.247122 
L 135.449771 107.992766 
L 136.295639 107.740566 
L 137.141499 107.310481 
L 137.987368 106.703629 
L 139.256162 105.423628 
L 140.524964 103.733248 
L 141.793759 101.563982 
L 143.062561 98.788617 
L 144.331355 95.383457 
L 145.60015 91.774771 
L 146.446018 89.815121 
L 147.291886 88.302128 
L 148.137746 87.259458 
L 148.983615 86.692519 
L 149.829475 86.345492 
L 150.252409 86.292836 
L 150.675343 86.477698 
L 151.098277 86.912774 
L 151.521211 87.627426 
L 152.367071 89.814266 
L 153.21294 93.024588 
L 154.481734 99.426451 
L 155.750536 105.354974 
L 156.173462 106.774541 
L 156.596397 107.782367 
L 157.019331 108.388034 
L 157.442265 108.552317 
L 157.865199 108.314323 
L 158.288125 107.673112 
L 159.133993 105.497761 
L 159.979862 103.023165 
L 160.402788 101.962418 
L 160.825722 101.304431 
L 161.248656 101.067726 
L 161.67159 101.232422 
L 162.940384 102.512975 
L 163.786253 102.631958 
L 168.438512 102.603737 
L 173.090763 102.580913 
L 181.126487 102.686117 
L 220.459216 102.9709 
L 221.72801 103.309326 
L 223.419731 104.071936 
L 225.534393 105.286438 
L 230.18666 108.282542 
L 231.455455 108.530488 
L 231.878381 108.447257 
L 233.147191 107.927569 
L 233.993043 107.732238 
L 235.261854 107.912011 
L 236.953574 108.06628 
L 239.068237 108.104377 
L 247.949829 108.234537 
L 250.487418 108.362352 
L 251.333286 108.416725 
L 251.333286 108.416725 
" clip-path="url(#p3fcd47a46a)" style="fill: none; stroke: #1f77b4; stroke-opacity: 0.95; stroke-width: 1.5; stroke-linecap: square"/>
   </g>
   <g id="line2d_42">
    <path d="M 48.748606 111.778818 
L 49.594471 111.100487 
L 52.132066 108.563399 
L 53.400863 107.732639 
L 55.092593 106.918127 
L 56.784323 106.336595 
L 60.590716 105.456406 
L 64.397109 104.960215 
L 68.203501 104.756375 
L 71.16403 104.901693 
L 73.701624 105.156881 
L 74.547488 105.449568 
L 75.393355 106.474097 
L 75.816287 107.242731 
L 76.239219 107.756219 
L 77.085085 108.314851 
L 77.930949 108.774424 
L 78.353882 109.044856 
L 79.199748 106.603649 
L 80.468544 102.586696 
L 80.891476 101.531466 
L 81.31441 101.004374 
L 81.737342 100.879356 
L 82.583207 101.098845 
L 83.429071 100.843173 
L 84.274939 100.381656 
L 85.120803 100.109729 
L 86.812532 99.300796 
L 87.235466 98.90631 
L 87.658396 98.804977 
L 88.504264 99.349776 
L 88.927194 99.822703 
L 89.350128 99.99345 
L 89.773059 99.892971 
L 90.195993 99.554671 
L 91.041857 98.703403 
L 91.887721 97.994415 
L 93.579454 97.934633 
L 94.848252 98.700979 
L 95.271182 98.640104 
L 96.117046 98.788296 
L 97.385845 100.129936 
L 98.231709 100.516876 
L 98.654643 100.310698 
L 99.077577 99.67707 
L 99.500507 98.623775 
L 99.923441 98.59876 
L 100.346371 98.801326 
L 101.19224 99.487914 
L 102.461034 101.144121 
L 102.883968 101.661614 
L 103.306902 102.002923 
L 105.421565 103.028418 
L 105.844495 103.395731 
L 106.267429 103.551341 
L 106.690359 103.26511 
L 107.113293 102.679864 
L 107.536227 101.768237 
L 107.959157 100.351636 
L 108.382092 99.732577 
L 108.805022 99.459768 
L 109.227956 99.528666 
L 110.07382 100.159754 
L 111.342618 101.298356 
L 113.034347 102.369501 
L 114.726079 103.182834 
L 116.840742 103.799486 
L 119.378339 104.202744 
L 121.915935 104.384333 
L 124.876458 104.394139 
L 133.758042 103.846193 
L 134.603911 103.795375 
L 135.026837 104.01349 
L 135.449771 104.446881 
L 136.295639 105.581619 
L 136.718573 105.880145 
L 137.564433 106.049615 
L 138.410302 105.864308 
L 139.256162 105.514608 
L 140.947898 104.48871 
L 143.062561 102.816519 
L 148.56068 98.33632 
L 151.521211 96.725933 
L 154.0588 95.897558 
L 157.442265 95.154085 
L 159.556927 94.823581 
L 167.592644 93.973225 
L 169.707306 93.809391 
L 179.011825 93.463204 
L 182.818216 93.396921 
L 185.778746 93.351931 
L 189.162203 93.31189 
L 195.506191 93.240619 
L 198.04378 93.228289 
L 202.696047 93.178746 
L 207.77124 93.156348 
L 213.692286 93.135673 
L 216.229891 93.408548 
L 217.498685 93.848355 
L 220.036274 95.161856 
L 225.111467 97.930835 
L 227.649056 99.183869 
L 228.071998 99.547908 
L 228.917866 100.480302 
L 229.763718 100.934419 
L 230.18666 100.979369 
L 230.609587 100.869854 
L 231.455455 100.218567 
L 231.878381 99.874034 
L 232.301323 99.692814 
L 233.147191 99.686434 
L 234.415986 100.17504 
L 236.107706 101.069932 
L 237.376516 101.572301 
L 239.068237 102.040575 
L 241.182899 102.443389 
L 246.681019 103.051028 
L 251.333286 103.619219 
L 251.333286 103.619219 
" clip-path="url(#p3fcd47a46a)" style="fill: none; stroke-dasharray: 5.55,2.4; stroke-dashoffset: 0; stroke: #dc143c; stroke-opacity: 0.95; stroke-width: 1.5"/>
   </g>
   <g id="line2d_43">
    <path d="M 48.748606 89.626731 
L 251.333286 89.626731 
L 251.333286 89.626731 
" clip-path="url(#p3fcd47a46a)" style="fill: none; stroke-dasharray: 1.5,2.475; stroke-dashoffset: 0; stroke: #000000; stroke-opacity: 0.95; stroke-width: 1.5"/>
   </g>
   <g id="line2d_44">
    <path d="M 48.748606 111.778818 
L 251.333286 111.778818 
L 251.333286 111.778818 
" clip-path="url(#p3fcd47a46a)" style="fill: none; stroke-dasharray: 1.5,2.475; stroke-dashoffset: 0; stroke: #000000; stroke-opacity: 0.95; stroke-width: 1.5"/>
   </g>
   <g id="patch_9">
    <path d="M 38.619371 132.294503 
L 38.619371 69.034377 
" style="fill: none; stroke: #000000; stroke-width: 0.8; stroke-linejoin: miter; stroke-linecap: square"/>
   </g>
   <g id="patch_10">
    <path d="M 261.46252 132.294503 
L 261.46252 69.034377 
" style="fill: none; stroke: #000000; stroke-width: 0.8; stroke-linejoin: miter; stroke-linecap: square"/>
   </g>
   <g id="patch_11">
    <path d="M 38.619371 132.294503 
L 261.46252 132.294503 
" style="fill: none; stroke: #000000; stroke-width: 0.8; stroke-linejoin: miter; stroke-linecap: square"/>
   </g>
   <g id="patch_12">
    <path d="M 38.619371 69.034377 
L 261.46252 69.034377 
" style="fill: none; stroke: #000000; stroke-width: 0.8; stroke-linejoin: miter; stroke-linecap: square"/>
   </g>
   <g id="legend_2">
    <g id="patch_13">
     <path d="M 172.603598 84.721396 
L 258.46252 84.721396 
L 258.46252 72.034377 
L 172.603598 72.034377 
z
" style="fill: #ffffff; stroke: #808080; stroke-linejoin: miter"/>
    </g>
    <g id="line2d_45">
     <path d="M 175.003598 78.228883 
L 181.003598 78.228883 
L 187.003598 78.228883 
" style="fill: none; stroke-dasharray: 1.5,2.475; stroke-dashoffset: 0; stroke: #000000; stroke-opacity: 0.95; stroke-width: 1.5"/>
    </g>
    <g id="text_11">
     <!-- $T_\mathrm{r}^{\mathrm{min}}, T_\mathrm{r}^{\mathrm{max}}$ bounds -->
     <g transform="translate(191.803598 80.328883) scale(0.06 -0.06)">
      <defs>
       <path id="CMR17-6d" d="M 4326 1933 
C 4326 2252 4269 2790 3507 2790 
C 3072 2790 2771 2496 2656 2151 
L 2650 2151 
C 2573 2676 2195 2790 1837 2790 
C 1331 2790 1069 2400 973 2144 
L 966 2144 
L 966 2790 
L 211 2720 
L 211 2554 
C 589 2554 646 2515 646 2208 
L 646 428 
C 646 184 621 153 211 153 
L 211 -13 
C 365 0 646 0 813 0 
C 979 0 1267 0 1421 -13 
L 1421 153 
C 1011 153 986 178 986 428 
L 986 1658 
C 986 2247 1344 2688 1792 2688 
C 2266 2688 2317 2266 2317 1958 
L 2317 428 
C 2317 184 2291 153 1882 153 
L 1882 -13 
C 2035 0 2317 0 2483 0 
C 2650 0 2938 0 3091 -13 
L 3091 153 
C 2682 153 2656 178 2656 428 
L 2656 1658 
C 2656 2247 3014 2688 3462 2688 
C 3936 2688 3987 2266 3987 1958 
L 3987 428 
C 3987 184 3962 153 3552 153 
L 3552 -13 
C 3706 0 3987 0 4154 0 
C 4320 0 4608 0 4762 -13 
L 4762 153 
C 4352 153 4326 178 4326 428 
L 4326 1933 
z
" transform="scale(0.015625)"/>
       <path id="CMR17-69" d="M 992 3909 
C 992 4049 877 4170 730 4170 
C 589 4170 467 4056 467 3909 
C 467 3769 582 3648 730 3648 
C 870 3648 992 3763 992 3909 
z
M 243 2706 
L 243 2541 
C 602 2541 653 2502 653 2197 
L 653 427 
C 653 184 627 153 218 153 
L 218 -13 
C 371 0 646 0 806 0 
C 960 0 1222 0 1370 -13 
L 1370 153 
C 992 153 979 191 979 420 
L 979 2776 
L 243 2706 
z
" transform="scale(0.015625)"/>
       <path id="CMR17-6e" d="M 2656 1933 
C 2656 2259 2592 2790 1837 2790 
C 1331 2790 1069 2400 973 2144 
L 966 2144 
L 966 2790 
L 211 2720 
L 211 2554 
C 589 2554 646 2515 646 2208 
L 646 428 
C 646 184 621 153 211 153 
L 211 -13 
C 365 0 646 0 813 0 
C 979 0 1267 0 1421 -13 
L 1421 153 
C 1011 153 986 178 986 428 
L 986 1658 
C 986 2247 1344 2688 1792 2688 
C 2266 2688 2317 2266 2317 1958 
L 2317 428 
C 2317 184 2291 153 1882 153 
L 1882 -13 
C 2035 0 2317 0 2483 0 
C 2650 0 2938 0 3091 -13 
L 3091 153 
C 2682 153 2656 178 2656 428 
L 2656 1933 
z
" transform="scale(0.015625)"/>
       <path id="CMR17-78" d="M 1664 1477 
C 1856 1726 2074 2006 2253 2216 
C 2464 2458 2707 2560 2989 2560 
L 2989 2726 
C 2880 2726 2656 2726 2541 2726 
C 2368 2726 2170 2726 2022 2732 
L 2022 2566 
C 2112 2553 2163 2489 2163 2400 
C 2163 2285 2099 2215 2067 2171 
L 1594 1573 
L 1030 2306 
C 973 2376 973 2388 973 2420 
C 973 2497 1037 2560 1146 2560 
L 1146 2732 
C 992 2726 717 2726 557 2726 
C 384 2726 179 2726 38 2732 
L 38 2560 
C 384 2560 461 2534 614 2343 
L 1350 1395 
C 1363 1382 1395 1344 1395 1325 
C 1395 1299 838 619 768 530 
C 480 185 179 160 6 160 
L 6 0 
C 115 0 339 0 454 0 
C 582 0 864 0 979 -6 
L 979 160 
C 941 166 838 179 838 325 
C 838 440 890 510 947 586 
L 1478 1236 
L 2035 512 
C 2086 442 2163 346 2163 301 
C 2163 211 2086 160 1984 160 
L 1984 -6 
C 2138 0 2413 0 2573 0 
C 2746 0 2950 0 3091 -6 
L 3091 160 
C 2771 160 2675 172 2522 370 
L 1664 1477 
z
" transform="scale(0.015625)"/>
       <path id="CMR17-62" d="M 960 4396 
L 198 4326 
L 198 4160 
C 576 4160 634 4122 634 3817 
L 634 -13 
L 749 -13 
L 934 441 
C 1120 141 1395 -64 1766 -64 
C 2406 -64 3053 500 3053 1370 
C 3053 2188 2477 2790 1830 2790 
C 1434 2790 1152 2579 960 2330 
L 960 4396 
z
M 973 2004 
C 973 2118 973 2138 1062 2272 
C 1312 2657 1670 2688 1792 2688 
C 1984 2688 2643 2585 2643 1376 
C 2643 108 1888 38 1734 38 
C 1536 38 1248 114 1043 486 
C 973 608 973 621 973 735 
L 973 2004 
z
" transform="scale(0.015625)"/>
       <path id="CMR17-75" d="M 1882 2693 
L 1882 2528 
C 2259 2528 2317 2489 2317 2186 
L 2317 1032 
C 2317 500 2029 38 1555 38 
C 1030 38 986 348 986 678 
L 986 2763 
L 211 2693 
L 211 2528 
C 467 2528 640 2528 646 2274 
L 646 1058 
C 646 633 646 361 813 183 
C 896 101 1056 -64 1517 -64 
C 2061 -64 2272 377 2323 506 
L 2330 506 
L 2330 -63 
L 3091 -63 
L 3091 128 
C 2714 128 2656 166 2656 473 
L 2656 2763 
L 1882 2693 
z
" transform="scale(0.015625)"/>
       <path id="CMR17-73" d="M 1978 2697 
C 1978 2813 1971 2819 1933 2819 
C 1907 2819 1901 2813 1824 2717 
C 1805 2691 1747 2626 1728 2601 
C 1523 2819 1235 2819 1126 2819 
C 416 2819 160 2447 160 2076 
C 160 1498 813 1365 998 1325 
C 1402 1243 1542 1217 1677 1101 
C 1760 1025 1901 884 1901 654 
C 1901 384 1747 38 1158 38 
C 602 38 403 460 288 1021 
C 269 1110 269 1117 218 1117 
C 166 1117 160 1110 160 983 
L 160 63 
C 160 -51 166 -58 205 -58 
C 237 -58 243 -51 275 0 
C 314 57 410 211 448 276 
C 576 103 800 -64 1158 -64 
C 1792 -64 2131 283 2131 784 
C 2131 1112 1958 1285 1875 1362 
C 1683 1561 1459 1606 1190 1657 
C 838 1735 390 1825 390 2217 
C 390 2383 480 2737 1126 2737 
C 1811 2737 1850 2094 1862 1888 
C 1869 1856 1901 1849 1920 1849 
C 1978 1849 1978 1869 1978 1978 
L 1978 2697 
z
" transform="scale(0.015625)"/>
      </defs>
      <use xlink:href="#CMMI12-54" transform="scale(0.996264)"/>
      <use xlink:href="#CMR17-6d" transform="translate(70.723632 36.153639) scale(0.697382)"/>
      <use xlink:href="#CMR17-69" transform="translate(124.567099 36.153639) scale(0.697382)"/>
      <use xlink:href="#CMR17-6e" transform="translate(141.976758 36.153639) scale(0.697382)"/>
      <use xlink:href="#CMR17-72" transform="translate(57.175044 -24.62935) scale(0.697382)"/>
      <use xlink:href="#CMMI12-3b" transform="translate(178.101498 0) scale(0.996264)"/>
      <use xlink:href="#CMMI12-54" transform="translate(221.80308 0) scale(0.996264)"/>
      <use xlink:href="#CMR17-6d" transform="translate(292.526713 36.153639) scale(0.697382)"/>
      <use xlink:href="#CMR17-61" transform="translate(346.370179 36.153639) scale(0.697382)"/>
      <use xlink:href="#CMR17-78" transform="translate(378.353361 36.153639) scale(0.697382)"/>
      <use xlink:href="#CMR17-72" transform="translate(278.978124 -24.62935) scale(0.697382)"/>
      <use xlink:href="#CMR17-62" transform="translate(442.732347 0) scale(0.996264)"/>
      <use xlink:href="#CMR17-6f" transform="translate(496.230156 0) scale(0.996264)"/>
      <use xlink:href="#CMR17-75" transform="translate(541.920633 0) scale(0.996264)"/>
      <use xlink:href="#CMR17-6e" transform="translate(592.816002 0) scale(0.996264)"/>
      <use xlink:href="#CMR17-64" transform="translate(643.711372 0) scale(0.996264)"/>
      <use xlink:href="#CMR17-73" transform="translate(694.606742 0) scale(0.996264)"/>
     </g>
    </g>
   </g>
  </g>
  <g id="axes_3">
   <g id="patch_14">
    <path d="M 38.619371 200.60888 
L 261.46252 200.60888 
L 261.46252 137.348754 
L 38.619371 137.348754 
L 38.619371 200.60888 
z
" style="fill: none"/>
   </g>
   <g id="matplotlib.axis_5">
    <g id="xtick_13">
     <g id="line2d_46">
      <path d="M 48.748606 200.60888 
L 48.748606 137.348754 
" clip-path="url(#pefc0da7a99)" style="fill: none; stroke: #b0b0b0; stroke-width: 0.8; stroke-linecap: square"/>
     </g>
     <g id="line2d_47">
      <g>
       <use xlink:href="#m615bc70acb" x="48.748606" y="200.60888" style="stroke: #000000; stroke-width: 0.8"/>
      </g>
     </g>
     <g id="text_12">
      <!-- $\mathdefault{0}$ -->
      <g transform="translate(46.631514 213.143682) scale(0.08 -0.08)">
       <use xlink:href="#CMR17-30" transform="scale(0.996264)"/>
      </g>
     </g>
    </g>
    <g id="xtick_14">
     <g id="line2d_48">
      <path d="M 91.041857 200.60888 
L 91.041857 137.348754 
" clip-path="url(#pefc0da7a99)" style="fill: none; stroke: #b0b0b0; stroke-width: 0.8; stroke-linecap: square"/>
     </g>
     <g id="line2d_49">
      <g>
       <use xlink:href="#m615bc70acb" x="91.041857" y="200.60888" style="stroke: #000000; stroke-width: 0.8"/>
      </g>
     </g>
     <g id="text_13">
      <!-- $\mathdefault{5}$ -->
      <g transform="translate(88.924765 213.143682) scale(0.08 -0.08)">
       <use xlink:href="#CMR17-35" transform="scale(0.996264)"/>
      </g>
     </g>
    </g>
    <g id="xtick_15">
     <g id="line2d_50">
      <path d="M 133.335108 200.60888 
L 133.335108 137.348754 
" clip-path="url(#pefc0da7a99)" style="fill: none; stroke: #b0b0b0; stroke-width: 0.8; stroke-linecap: square"/>
     </g>
     <g id="line2d_51">
      <g>
       <use xlink:href="#m615bc70acb" x="133.335108" y="200.60888" style="stroke: #000000; stroke-width: 0.8"/>
      </g>
     </g>
     <g id="text_14">
      <!-- $\mathdefault{10}$ -->
      <g transform="translate(129.100925 213.143682) scale(0.08 -0.08)">
       <use xlink:href="#CMR17-31" transform="scale(0.996264)"/>
       <use xlink:href="#CMR17-30" transform="translate(45.690477 0) scale(0.996264)"/>
      </g>
     </g>
    </g>
    <g id="xtick_16">
     <g id="line2d_52">
      <path d="M 175.62836 200.60888 
L 175.62836 137.348754 
" clip-path="url(#pefc0da7a99)" style="fill: none; stroke: #b0b0b0; stroke-width: 0.8; stroke-linecap: square"/>
     </g>
     <g id="line2d_53">
      <g>
       <use xlink:href="#m615bc70acb" x="175.62836" y="200.60888" style="stroke: #000000; stroke-width: 0.8"/>
      </g>
     </g>
     <g id="text_15">
      <!-- $\mathdefault{15}$ -->
      <g transform="translate(171.394177 213.143682) scale(0.08 -0.08)">
       <use xlink:href="#CMR17-31" transform="scale(0.996264)"/>
       <use xlink:href="#CMR17-35" transform="translate(45.690477 0) scale(0.996264)"/>
      </g>
     </g>
    </g>
    <g id="xtick_17">
     <g id="line2d_54">
      <path d="M 217.921611 200.60888 
L 217.921611 137.348754 
" clip-path="url(#pefc0da7a99)" style="fill: none; stroke: #b0b0b0; stroke-width: 0.8; stroke-linecap: square"/>
     </g>
     <g id="line2d_55">
      <g>
       <use xlink:href="#m615bc70acb" x="217.921611" y="200.60888" style="stroke: #000000; stroke-width: 0.8"/>
      </g>
     </g>
     <g id="text_16">
      <!-- $\mathdefault{20}$ -->
      <g transform="translate(213.687428 213.143682) scale(0.08 -0.08)">
       <use xlink:href="#CMR17-32" transform="scale(0.996264)"/>
       <use xlink:href="#CMR17-30" transform="translate(45.690477 0) scale(0.996264)"/>
      </g>
     </g>
    </g>
    <g id="xtick_18">
     <g id="line2d_56">
      <path d="M 260.214862 200.60888 
L 260.214862 137.348754 
" clip-path="url(#pefc0da7a99)" style="fill: none; stroke: #b0b0b0; stroke-width: 0.8; stroke-linecap: square"/>
     </g>
     <g id="line2d_57">
      <g>
       <use xlink:href="#m615bc70acb" x="260.214862" y="200.60888" style="stroke: #000000; stroke-width: 0.8"/>
      </g>
     </g>
     <g id="text_17">
      <!-- $\mathdefault{25}$ -->
      <g transform="translate(255.98068 213.143682) scale(0.08 -0.08)">
       <use xlink:href="#CMR17-32" transform="scale(0.996264)"/>
       <use xlink:href="#CMR17-35" transform="translate(45.690477 0) scale(0.996264)"/>
      </g>
     </g>
    </g>
    <g id="text_18">
     <!-- Time [h] -->
     <g transform="translate(131.499332 226.165408) scale(0.1 -0.1)">
      <defs>
       <path id="CMR17-54" d="M 3981 4326 
L 288 4326 
L 179 2918 
L 294 2918 
C 378 3976 467 4160 1453 4160 
C 1568 4160 1754 4160 1805 4154 
C 1926 4135 1926 4058 1926 3912 
L 1926 459 
C 1926 230 1907 160 1376 160 
L 1197 160 
L 1197 0 
C 1504 0 1824 0 2138 0 
C 2451 0 2771 0 3078 0 
L 3078 160 
L 2899 160 
C 2368 160 2349 230 2349 459 
L 2349 3912 
C 2349 4052 2349 4129 2464 4154 
C 2515 4160 2701 4160 2816 4160 
C 3795 4160 3891 3976 3974 2918 
L 4090 2918 
L 3981 4326 
z
" transform="scale(0.015625)"/>
       <path id="CMR17-65" d="M 2438 1472 
C 2464 1498 2464 1511 2464 1576 
C 2464 2238 2118 2816 1389 2816 
C 710 2816 173 2169 173 1383 
C 173 551 781 -64 1459 -64 
C 2176 -64 2458 607 2458 740 
C 2458 784 2419 784 2406 784 
C 2362 784 2355 771 2330 696 
C 2189 265 1837 51 1504 51 
C 1229 51 954 203 781 480 
C 582 803 582 1176 582 1472 
L 2438 1472 
z
M 589 1568 
C 634 2505 1126 2714 1382 2714 
C 1818 2714 2112 2297 2118 1568 
L 589 1568 
z
" transform="scale(0.015625)"/>
       <path id="CMR17-68" d="M 2656 1933 
C 2656 2259 2592 2790 1837 2790 
C 1312 2790 1056 2368 979 2157 
L 973 2157 
L 973 4396 
L 211 4326 
L 211 4160 
C 589 4160 646 4122 646 3817 
L 646 426 
C 646 184 621 153 211 153 
L 211 -13 
C 365 0 646 0 813 0 
C 979 0 1267 0 1421 -13 
L 1421 153 
C 1011 153 986 178 986 428 
L 986 1658 
C 986 2247 1344 2688 1792 2688 
C 2266 2688 2317 2266 2317 1958 
L 2317 428 
C 2317 184 2291 153 1882 153 
L 1882 -13 
C 2035 0 2317 0 2483 0 
C 2650 0 2938 0 3091 -13 
L 3091 153 
C 2682 153 2656 178 2656 428 
L 2656 1933 
z
" transform="scale(0.015625)"/>
      </defs>
      <use xlink:href="#CMR17-54" transform="scale(0.996264)"/>
      <use xlink:href="#CMR17-69" transform="translate(66.509881 0) scale(0.996264)"/>
      <use xlink:href="#CMR17-6d" transform="translate(91.380939 0) scale(0.996264)"/>
      <use xlink:href="#CMR17-65" transform="translate(168.300529 0) scale(0.996264)"/>
      <use xlink:href="#CMR17-5b" transform="translate(238.862156 0) scale(0.996264)"/>
      <use xlink:href="#CMR17-68" transform="translate(263.733214 0) scale(0.996264)"/>
      <use xlink:href="#CMR17-5d" transform="translate(314.628584 0) scale(0.996264)"/>
     </g>
    </g>
   </g>
   <g id="matplotlib.axis_6">
    <g id="ytick_6">
     <g id="line2d_58">
      <path d="M 38.619371 197.73342 
L 261.46252 197.73342 
" clip-path="url(#pefc0da7a99)" style="fill: none; stroke: #b0b0b0; stroke-width: 0.8; stroke-linecap: square"/>
     </g>
     <g id="line2d_59">
      <g>
       <use xlink:href="#m3bf31e405b" x="38.619371" y="197.73342" style="stroke: #000000; stroke-width: 0.8"/>
      </g>
     </g>
     <g id="text_19">
      <!-- $\mathdefault{1}$ -->
      <g transform="translate(27.385189 200.500821) scale(0.08 -0.08)">
       <use xlink:href="#CMR17-31" transform="scale(0.996264)"/>
      </g>
     </g>
    </g>
    <g id="ytick_7">
     <g id="line2d_60">
      <path d="M 38.619371 168.978817 
L 261.46252 168.978817 
" clip-path="url(#pefc0da7a99)" style="fill: none; stroke: #b0b0b0; stroke-width: 0.8; stroke-linecap: square"/>
     </g>
     <g id="line2d_61">
      <g>
       <use xlink:href="#m3bf31e405b" x="38.619371" y="168.978817" style="stroke: #000000; stroke-width: 0.8"/>
      </g>
     </g>
     <g id="text_20">
      <!-- $\mathdefault{2}$ -->
      <g transform="translate(27.385189 171.746218) scale(0.08 -0.08)">
       <use xlink:href="#CMR17-32" transform="scale(0.996264)"/>
      </g>
     </g>
    </g>
    <g id="ytick_8">
     <g id="line2d_62">
      <path d="M 38.619371 140.224214 
L 261.46252 140.224214 
" clip-path="url(#pefc0da7a99)" style="fill: none; stroke: #b0b0b0; stroke-width: 0.8; stroke-linecap: square"/>
     </g>
     <g id="line2d_63">
      <g>
       <use xlink:href="#m3bf31e405b" x="38.619371" y="140.224214" style="stroke: #000000; stroke-width: 0.8"/>
      </g>
     </g>
     <g id="text_21">
      <!-- $\mathdefault{3}$ -->
      <g transform="translate(27.385189 142.991615) scale(0.08 -0.08)">
       <defs>
        <path id="CMR17-33" d="M 1414 2157 
C 1984 2157 2234 1662 2234 1090 
C 2234 320 1824 25 1453 25 
C 1114 25 563 194 390 693 
C 422 680 454 680 486 680 
C 640 680 755 782 755 948 
C 755 1133 614 1216 486 1216 
C 378 1216 211 1165 211 926 
C 211 335 787 -128 1466 -128 
C 2176 -128 2720 430 2720 1085 
C 2720 1707 2208 2157 1600 2227 
C 2086 2328 2554 2756 2554 3329 
C 2554 3820 2048 4179 1472 4179 
C 890 4179 378 3829 378 3329 
C 378 3110 544 3072 627 3072 
C 762 3072 877 3155 877 3321 
C 877 3486 762 3569 627 3569 
C 602 3569 570 3569 544 3557 
C 730 3959 1235 4032 1459 4032 
C 1683 4032 2106 3925 2106 3320 
C 2106 3143 2080 2828 1862 2550 
C 1670 2304 1453 2304 1242 2284 
C 1210 2284 1062 2269 1037 2269 
C 992 2263 966 2257 966 2208 
C 966 2163 973 2157 1101 2157 
L 1414 2157 
z
" transform="scale(0.015625)"/>
       </defs>
       <use xlink:href="#CMR17-33" transform="scale(0.996264)"/>
      </g>
     </g>
    </g>
    <g id="text_22">
     <!-- $s$ [-] -->
     <g transform="translate(20.894529 177.402094) rotate(-90) scale(0.1 -0.1)">
      <defs>
       <path id="CMMI12-73" d="M 1459 1280 
C 1568 1261 1741 1223 1779 1216 
C 1862 1192 2150 1090 2150 783 
C 2150 586 1971 70 1229 70 
C 1094 70 614 70 486 436 
C 742 404 870 603 870 745 
C 870 880 781 950 653 950 
C 512 950 326 841 326 552 
C 326 173 710 -64 1222 -64 
C 2195 -64 2483 651 2483 984 
C 2483 1079 2483 1258 2278 1462 
C 2118 1616 1965 1648 1619 1718 
C 1446 1756 1171 1814 1171 2101 
C 1171 2229 1286 2689 1894 2689 
C 2163 2689 2426 2589 2490 2368 
C 2208 2368 2195 2125 2195 2119 
C 2195 1984 2317 1946 2374 1946 
C 2464 1946 2643 2015 2643 2281 
C 2643 2545 2400 2816 1901 2816 
C 1062 2816 838 2160 838 1899 
C 838 1414 1312 1312 1459 1280 
z
" transform="scale(0.015625)"/>
      </defs>
      <use xlink:href="#CMMI12-73" transform="scale(0.996264)"/>
      <use xlink:href="#CMR17-5b" transform="translate(76.026014 0) scale(0.996264)"/>
      <use xlink:href="#CMR17-2d" transform="translate(100.897072 0) scale(0.996264)"/>
      <use xlink:href="#CMR17-5d" transform="translate(130.973039 0) scale(0.996264)"/>
     </g>
    </g>
   </g>
   <g id="line2d_64">
    <path d="M 48.748606 168.978817 
L 49.171538 197.73342 
L 85.966668 197.73342 
L 86.389602 168.978817 
L 91.464791 168.978817 
L 91.887721 140.224214 
L 103.729832 140.224214 
L 104.152766 168.978817 
L 105.421565 168.978817 
L 105.844495 197.73342 
L 144.331355 197.73342 
L 144.754289 168.978817 
L 149.829475 168.978817 
L 150.252409 140.224214 
L 229.340792 140.224214 
L 229.763718 168.978817 
L 231.032529 168.978817 
L 231.455455 197.73342 
L 251.333286 197.73342 
L 251.333286 197.73342 
" clip-path="url(#pefc0da7a99)" style="fill: none; stroke: #1f77b4; stroke-opacity: 0.95; stroke-width: 1.5; stroke-linecap: square"/>
   </g>
   <g id="line2d_65">
    <path d="M 48.748606 197.73342 
L 74.124556 197.73342 
L 74.547488 140.224214 
L 105.421565 140.224214 
L 105.844495 197.73342 
L 134.180977 197.73342 
L 134.603911 140.224214 
L 228.071998 140.224214 
L 228.494924 197.73342 
L 251.333286 197.73342 
L 251.333286 197.73342 
" clip-path="url(#pefc0da7a99)" style="fill: none; stroke-dasharray: 5.55,2.4; stroke-dashoffset: 0; stroke: #dc143c; stroke-opacity: 0.95; stroke-width: 1.5"/>
   </g>
   <g id="patch_15">
    <path d="M 38.619371 200.60888 
L 38.619371 137.348754 
" style="fill: none; stroke: #000000; stroke-width: 0.8; stroke-linejoin: miter; stroke-linecap: square"/>
   </g>
   <g id="patch_16">
    <path d="M 261.46252 200.60888 
L 261.46252 137.348754 
" style="fill: none; stroke: #000000; stroke-width: 0.8; stroke-linejoin: miter; stroke-linecap: square"/>
   </g>
   <g id="patch_17">
    <path d="M 38.619371 200.60888 
L 261.46252 200.60888 
" style="fill: none; stroke: #000000; stroke-width: 0.8; stroke-linejoin: miter; stroke-linecap: square"/>
   </g>
   <g id="patch_18">
    <path d="M 38.619371 137.348754 
L 261.46252 137.348754 
" style="fill: none; stroke: #000000; stroke-width: 0.8; stroke-linejoin: miter; stroke-linecap: square"/>
   </g>
  </g>
 </g>
 <defs>
  <clipPath id="p7a42a01470">
   <rect x="38.619371" y="0.72" width="222.843149" height="63.260126"/>
  </clipPath>
  <clipPath id="p3fcd47a46a">
   <rect x="38.619371" y="69.034377" width="222.843149" height="63.260126"/>
  </clipPath>
  <clipPath id="pefc0da7a99">
   <rect x="38.619371" y="137.348754" width="222.843149" height="63.260126"/>
  </clipPath>
 </defs>
</svg>
